<?xml version="1.0" encoding="UTF-8"?>
<svg id="Layer_1" data-name="Layer 1" xmlns="http://www.w3.org/2000/svg" version="1.1" viewBox="0 0 120 90">
  <defs>
    <style>
      .cls-1 {
        stroke-width: 3.6px;
      }

      .cls-1, .cls-2, .cls-3 {
        fill: none;
      }

      .cls-1, .cls-2, .cls-3, .cls-4 {
        stroke: #ae92ff;
      }

      .cls-5, .cls-4 {
        fill: #ae92ff;
      }

      .cls-5, .cls-6 {
        stroke-width: 0px;
      }

      .cls-2 {
        stroke-width: 5.1px;
      }

      .cls-3 {
        stroke-width: 2.7px;
      }

      .cls-4 {
        stroke-width: 1.9px;
      }

      .cls-6 {
        fill: #fff;
      }
    </style>
  </defs>
  <path class="cls-6" d="M26.9,20l-2.2,8.5,11.6,18.7,48.5.4,15.5-9.2,8.8-11.7-7.1-5.4-5.8,6.5-6.5-12.1s-51.5-9-63,4.3Z"/>
  <path class="cls-2" d="M59.6,68.9c20.8,0,37.7-14.9,37.7-33.3S80.5,2.3,59.6,2.3,21.9,17.2,21.9,35.6s16.9,33.3,37.7,33.3Z"/>
  <path class="cls-2" d="M21.9,31.6c4.8-2,18-7.7,38.3-7.7s33.3,5.7,36.6,7.7"/>
  <path class="cls-1" d="M25.3,21.3c4.4-2,16.6-7.3,34.9-7.2,18.3.1,30.5,5.1,33.4,7.2"/>
  <path class="cls-1" d="M33.6,27.7c0,5.4-2.2,13.7,6.6,18.2s10.1-4.6,20-4.6,10.3,7,19.1,4.6c6.3-1.8,6.8-13.6,6-18.7"/>
  <path class="cls-5" d="M18.6,5.9c1.3,4.1,4.1,11.7,8.3,11.8-1.2,2.2-2.6,6.2-4.6,10.6-4.6,1.8-14.3,2.4-21.2.8-.4-1.4-.5-7.4-1.1-10.2,5.7,2.9,18.5,4.6,19.5,2.7,0,0-9.2-8.4-10.4-13.2,0,0,7.7-.4,9.5-2.4h0Z"/>
  <path class="cls-4" d="M48.7,36.1c1.1,0,2-.9,2-1.9s-.9-1.9-2-1.9-2,.9-2,1.9.9,1.9,2,1.9Z"/>
  <path class="cls-4" d="M69.4,36.1c1.1,0,2-.9,2-1.9s-.9-1.9-2-1.9-2,.9-2,1.9.9,1.9,2,1.9Z"/>
  <path class="cls-5" d="M35.9,40.5c-2.6-3-2.8-9.4-2.6-12.2l-12.7,4.5c-.5,4.3,1.3,13.8,9.6,23.5,10.4,12.1,28.8,14.4,47.2,8.3,18.4-6.1,20.8-29.5,20-31.8-.6-1.8-7.7-4.4-11.1-5.7,0,1.5-1.6,4.8-.9,7.9.8,3.8-1.2,7.6-6.8,9.1-5.6,1.5-9.8-2.9-13.8-3.6-4-.8-9.2,0-15.7,3.6-5.9,3.3-9.9.2-13.1-3.6h0Z"/>
  <path class="cls-5" d="M87,12.8c-4.8-6.1-14.3-10-22.3-10.8-17.6-1.5-26.6,5.2-31.4,9.7-4.6,4.3-8.7,10.6-7.1,9.1,1.6-1.5,23.2-7.2,33.6-7.2s25.3,4.4,32,6.5c-.3-1-1-2.4-4.8-7.2Z"/>
  <path class="cls-5" d="M113,9.3l-9.7,11.5c-.4.5-.4,1.3.2,1.7l4.8,3.9c.5.4,1.3.4,1.7-.2l9.7-11.5c.4-.5.4-1.3-.2-1.7l-4.8-3.9c-.5-.4-1.3-.4-1.7.2Z"/>
  <path class="cls-5" d="M98.9,17.1l-1.2,1.4c-.2.3-.2.6,0,.8l14.3,11.5c.3.2.7.2.9,0l1.2-1.4c.2-.3.2-.6,0-.8l-14.3-11.5c-.3-.2-.7-.2-.9,0Z"/>
  <path class="cls-3" d="M101.6,22l-13,15.3,7.5,6,13-15.3-7.5-6Z"/>
  <path class="cls-5" d="M106.1,40.7c-31-.4-81.2,0-93.6,0-1.4,0-2.5,1.2-2.3,2.6l5.1,44.7c.1,1.2,1.1,2.1,2.3,2.1h82.6c1.2,0,2.2-.9,2.3-2l5.9-44.7c.2-1.4-.9-2.6-2.3-2.6h0ZM59.9,73.5c-4.3,0-7.8-3.4-7.8-7.6s3.5-7.6,7.8-7.6,7.8,3.4,7.8,7.6-3.5,7.6-7.8,7.6Z"/>
  <path class="cls-6" d="M59.9,73.5c4.3,0,7.8-3.4,7.8-7.6s-3.5-7.6-7.8-7.6-7.8,3.4-7.8,7.6,3.5,7.6,7.8,7.6Z"/>
</svg>