<svg width="119" height="87" viewBox="0 0 119 87" fill="none" xmlns="http://www.w3.org/2000/svg">
<mask id="mask0_9_615" style="mask-type:alpha" maskUnits="userSpaceOnUse" x="0" y="0" width="119" height="49">
<rect x="0.598145" y="0.0515137" width="117.952" height="48.5248" fill="#D9D9D9"/>
</mask>
<g mask="url(#mask0_9_615)">
<ellipse cx="59.4932" cy="38.3765" rx="32.3606" ry="29.3118" stroke="#B2A1F8" stroke-width="2"/>
<path d="M27.1326 34.8913C31.2497 33.1148 42.5965 28.1084 59.9872 28.1084C77.378 28.1084 88.5601 33.1148 91.3597 34.8913" stroke="#B2A1F8" stroke-width="2"/>
<path d="M30.0527 25.7536C33.7857 24.0228 44.269 19.3189 59.9749 19.4452C75.6809 19.5715 86.1046 23.9724 88.6183 25.7534" stroke="#B2A1F8" stroke-width="2"/>
<path d="M37.1924 31.4474C37.1924 36.1629 35.322 43.5092 42.8387 47.4715C50.3554 51.4337 51.507 43.4624 59.9761 43.4624C67.9625 43.4624 68.8048 49.6612 76.3782 47.4715C81.7956 45.9051 82.2025 35.5004 81.5231 30.9814" stroke="#B2A1F8" stroke-width="2"/>
<path d="M24.2959 12.2292C25.422 15.8537 27.8154 22.5096 31.4271 22.6288C30.405 24.599 29.2223 28.1189 27.5032 31.9674C23.5609 33.5801 15.2809 34.0538 9.29567 32.6605C8.93203 31.4036 8.87189 26.1679 8.34697 23.6607C13.2456 26.214 24.2012 27.6817 25.0869 26.0069C25.0869 26.0069 17.235 18.573 16.1286 14.3512C16.1286 14.3512 22.7041 13.9704 24.2959 12.2292Z" fill="#B2A1F8"/>
<ellipse cx="50.1064" cy="37.1369" rx="1.72919" ry="1.69572" fill="#B2A1F8" stroke="#B2A1F8" stroke-width="2"/>
<ellipse cx="67.8923" cy="37.1369" rx="1.72919" ry="1.69572" fill="#B2A1F8" stroke="#B2A1F8" stroke-width="2"/>
<path d="M39.1186 42.7117C36.9248 40.0462 36.6921 34.4514 36.9206 32.0081L26.0389 36.0063C25.5819 39.7824 27.1358 48.1342 34.2656 56.6638C43.1778 67.3257 58.9457 69.3248 74.7136 63.9938C90.4814 58.6629 92.5381 38.0054 91.8525 36.0063C91.3041 34.407 85.276 32.0926 82.3053 30.982C82.3053 32.3147 80.9571 35.2477 81.5055 37.9132C82.1911 41.245 80.4396 44.578 75.6407 45.9107C70.8418 47.2434 67.246 43.3781 63.8182 42.7117C60.3905 42.0453 55.9134 42.7117 50.3151 45.9107C45.2468 48.8069 41.8608 46.0435 39.1186 42.7117Z" fill="#B2A1F8"/>
<path d="M82.9403 18.299C78.8268 12.968 70.6738 9.44725 63.8182 8.78088C48.736 7.44814 41.034 13.349 36.9206 17.3472C33.0123 21.1461 29.4667 26.6771 30.8379 25.3444C32.209 24.0116 50.7334 18.9857 59.6456 18.9857C70.309 18.9857 81.3406 22.901 87.0537 24.678C86.8252 23.7895 86.231 22.5637 82.9403 18.299Z" fill="#B2A1F8"/>
<rect x="105.957" y="14.4246" width="7.4715" height="15.2397" rx="1.85488" transform="rotate(39.5223 105.957 14.4246)" fill="#B2A1F8"/>
<rect x="93.5247" y="21.6667" width="16.9354" height="2.61251" rx="0.927441" transform="rotate(39.5223 93.5247 21.6667)" fill="#B2A1F8"/>
<rect x="95.5181" y="26.3011" width="8.4601" height="17.5939" transform="rotate(39.5223 95.5181 26.3011)" stroke="#B2A1F8" stroke-width="2"/>
</g>
<path fill-rule="evenodd" clip-rule="evenodd" d="M21.1889 83.149L17.185 46.8096C16.9549 44.7216 18.5664 42.8883 20.6671 42.8741C21.0687 42.8714 21.497 42.8685 21.9505 42.8655C35.7658 42.772 73.0396 42.5199 97.6637 42.839C99.7654 42.8662 101.356 44.7199 101.09 46.8048L96.4348 83.21C96.2097 84.9705 94.7114 86.2894 92.9366 86.2894H24.6944C22.8961 86.2894 21.3858 84.9364 21.1889 83.149ZM59.6974 71.7632C63.3782 71.7632 66.362 68.7794 66.362 65.0986C66.362 61.4179 63.3782 58.434 59.6974 58.434C56.0166 58.434 53.0328 61.4179 53.0328 65.0986C53.0328 68.7794 56.0166 71.7632 59.6974 71.7632Z" fill="#B2A1F8"/>
</svg>
