<svg width="120" height="90" viewBox="0 0 120 90" fill="none" xmlns="http://www.w3.org/2000/svg">
<g clip-path="url(#clip0_5_16470)">
<path d="M59.6256 68.8776C80.4629 68.8776 97.3549 53.9748 97.3549 35.5913C97.3549 17.2078 80.4629 2.30499 59.6256 2.30499C38.7882 2.30499 21.8962 17.2078 21.8962 35.5913C21.8962 53.9748 38.7882 68.8776 59.6256 68.8776Z" stroke="#AE92FF" stroke-width="5.11"/>
<path d="M21.8962 31.6296C26.6933 29.6128 39.9198 23.9225 60.1986 23.9225C80.4775 23.9225 93.5099 29.6038 96.7726 31.6296" stroke="#AE92FF" stroke-width="5.11"/>
<path d="M25.3069 21.2576C29.6603 19.2948 41.8793 13.9466 60.1894 14.0907C78.4995 14.2347 90.6539 19.2317 93.5839 21.2576" stroke="#AE92FF" stroke-width="3.62"/>
<path d="M33.6253 27.7221C33.6253 33.0792 31.444 41.4165 40.2062 45.9183C48.9684 50.4201 50.3086 41.3625 60.18 41.3625C69.4876 41.3625 70.4765 48.4033 79.3035 45.9183C85.6163 44.1356 86.097 32.3229 85.3021 27.1909" stroke="#AE92FF" stroke-width="3.62"/>
<path d="M18.5966 5.89746C19.9091 10.0121 22.7005 17.5751 26.906 17.7102C25.7136 19.9431 24.3364 23.9407 22.3307 28.3164C17.737 30.1442 8.07826 30.6844 1.10914 29.0997C0.683971 27.6682 0.619271 21.7258 0 18.8807C5.71208 21.7798 18.4857 23.4455 19.5117 21.5457C19.5117 21.5457 10.3612 13.1003 9.06724 8.31043C9.06724 8.31043 16.7296 7.87825 18.5874 5.89746H18.5966Z" fill="#AE92FF"/>
<path d="M48.6822 36.1044C49.795 36.1044 50.6971 35.2418 50.6971 34.1776C50.6971 33.1135 49.795 32.2509 48.6822 32.2509C47.5694 32.2509 46.6672 33.1135 46.6672 34.1776C46.6672 35.2418 47.5694 36.1044 48.6822 36.1044Z" fill="#AE92FF" stroke="#AE92FF" stroke-width="1.88"/>
<path d="M69.4139 36.1044C70.5267 36.1044 71.4288 35.2418 71.4288 34.1776C71.4288 33.1135 70.5267 32.2509 69.4139 32.2509C68.301 32.2509 67.3989 33.1135 67.3989 34.1776C67.3989 35.2418 68.301 36.1044 69.4139 36.1044Z" fill="#AE92FF" stroke="#AE92FF" stroke-width="1.88"/>
<path d="M35.8716 40.5072C33.3113 37.4819 33.0433 31.1254 33.3113 28.3523L20.6301 32.8901C20.094 37.1758 21.9056 46.6656 30.2242 56.3445C40.6132 68.4543 58.9972 70.7232 77.3812 64.6728C95.7653 58.6224 98.1592 35.159 97.3643 32.8901C96.7265 31.0714 89.702 28.4423 86.2359 27.1818C86.2359 28.6944 84.6646 32.0258 85.3024 35.051C86.0973 38.8325 84.0638 42.623 78.4627 44.1356C72.8707 45.6482 68.6745 41.2635 64.6816 40.5072C60.6886 39.7509 55.4664 40.5072 48.941 44.1356C43.0348 47.4219 39.0881 44.2887 35.8901 40.5072H35.8716Z" fill="#AE92FF"/>
<path d="M86.9568 12.7851C82.1597 6.73473 72.6581 2.73713 64.663 1.98082C47.0831 0.46822 38.0991 7.1669 33.3113 11.7047C28.7545 16.0174 24.623 22.302 26.222 20.7893C27.821 19.2767 49.4123 13.5685 59.8013 13.5685C72.2329 13.5685 85.0897 18.0162 91.7538 20.033C91.4858 19.0246 90.7926 17.6291 86.9568 12.7851Z" fill="#AE92FF"/>
<path d="M113.005 9.32253L103.276 20.8102C102.841 21.3242 102.916 22.0846 103.444 22.5086L108.249 26.3703C108.777 26.7943 109.558 26.7213 109.993 26.2073L119.721 14.7196C120.156 14.2056 120.082 13.4452 119.554 13.0212L114.748 9.15958C114.221 8.73557 113.44 8.80853 113.005 9.32253Z" fill="#AE92FF"/>
<path d="M98.8992 17.0759L97.7464 18.4372C97.5287 18.6942 97.5662 19.0744 97.83 19.2864L112.104 30.7567C112.368 30.9687 112.758 30.9322 112.976 30.6752L114.129 29.3139C114.346 29.0569 114.309 28.6767 114.045 28.4647L99.771 16.9944C99.5071 16.7824 99.1168 16.8189 98.8992 17.0759Z" fill="#AE92FF"/>
<path d="M101.633 21.9811L88.6819 37.2748L96.1683 43.2907L109.12 27.997L101.633 21.9811Z" stroke="#AE92FF" stroke-width="2.69"/>
<path d="M106.071 40.6783C75.0981 40.2461 24.9094 40.6242 12.4408 40.7053C11.0359 40.7053 9.93597 41.9118 10.0931 43.2713L15.1489 87.9472C15.2783 89.1176 16.2951 90 17.4966 90H100.146C101.339 90 102.337 89.1356 102.494 87.9922L108.363 43.2803C108.539 41.9208 107.476 40.7053 106.071 40.6873V40.6783ZM59.8659 73.4964C55.5772 73.4964 52.0926 70.111 52.0926 65.9244C52.0926 61.7377 55.5679 58.3523 59.8659 58.3523C64.1638 58.3523 67.6391 61.7377 67.6391 65.9244C67.6391 70.111 64.1638 73.4964 59.8659 73.4964Z" fill="#AE92FF"/>
<path d="M59.8658 73.5054C64.1588 73.5054 67.639 70.1153 67.639 65.9334C67.639 61.7514 64.1588 58.3613 59.8658 58.3613C55.5727 58.3613 52.0925 61.7514 52.0925 65.9334C52.0925 70.1153 55.5727 73.5054 59.8658 73.5054Z" fill="white"/>
</g>
<defs>
<clipPath id="clip0_5_16470">
<rect width="120" height="90" fill="white"/>
</clipPath>
</defs>
</svg>
