<?xml version="1.0" encoding="utf-8"?>
<svg viewBox="-8.396 48.697 500.84 370.701" xmlns="http://www.w3.org/2000/svg">
  <defs>
    <clipPath id="clip0_5_16470">
      <rect width="120" height="90" fill="white"/>
    </clipPath>
  </defs>
  <g clip-path="url(#clip0_5_16470)" transform="matrix(4.094315052032471, 0, 0, 3.9732539653778076, 2.4031269550323486, 56.104679107666016)" style="">
    <path d="M 57.754 55.301 C 74.31 55.373 95.93 54.176 96.135 35.927 C 96.34 17.678 79.614 2.885 58.777 2.885 C 37.939 2.885 20.881 17.678 20.676 35.927 C 20.471 54.176 41.198 55.229 57.754 55.301 Z" stroke="#AE92FF" stroke-width="5.11" style="fill: rgba(107, 101, 101, 0);"/>
    <path d="M 20.465 31.722 C 25.262 29.705 38.488 24.015 58.767 24.015 C 79.046 24.015 92.079 29.696 95.341 31.722" stroke="#AE92FF" stroke-width="5.11" style="fill: rgba(0, 0, 0, 0);"/>
    <path d="M 23.876 21.35 C 28.229 19.387 40.448 14.039 58.758 14.183 C 77.068 14.327 89.223 19.324 92.153 21.35" stroke="#AE92FF" stroke-width="3.62" style="fill: rgba(186, 218, 85, 0);"/>
    <path d="M 32.194 27.814 C 32.194 33.171 30.013 41.509 38.775 46.01 C 47.537 50.512 48.877 41.455 58.749 41.455 C 68.056 41.455 69.045 48.495 77.872 46.01 C 84.185 44.228 84.666 32.415 83.871 27.283" stroke="#AE92FF" stroke-width="3.62" style="fill: rgba(255, 255, 255, 0);"/>
    <path d="M 17.165 5.99 C 18.478 10.104 21.269 17.667 25.475 17.802 C 24.282 20.035 22.905 24.033 20.899 28.409 C 16.306 30.236 6.647 30.777 -0.322 29.192 C -0.747 27.76 -0.812 21.818 -1.431 18.973 C 4.281 21.872 17.054 23.538 18.08 21.638 C 18.08 21.638 8.93 13.192 7.636 8.403 C 7.636 8.403 15.298 7.97 17.156 5.99 L 17.165 5.99 Z" fill="#AE92FF"/>
    <path d="M 47.251 36.197 C 48.364 36.197 49.266 35.334 49.266 34.27 C 49.266 33.206 48.364 32.343 47.251 32.343 C 46.138 32.343 45.236 33.206 45.236 34.27 C 45.236 35.334 46.138 36.197 47.251 36.197 Z" fill="#AE92FF" stroke="#AE92FF" stroke-width="1.88"/>
    <path d="M 67.983 36.197 C 69.095 36.197 69.997 35.334 69.997 34.27 C 69.997 33.206 69.095 32.343 67.983 32.343 C 66.87 32.343 65.968 33.206 65.968 34.27 C 65.968 35.334 66.87 36.197 67.983 36.197 Z" fill="#AE92FF" stroke="#AE92FF" stroke-width="1.88"/>
    <path d="M 34.44 40.599 C 31.88 37.574 31.612 31.218 31.88 28.444 L 19.199 32.982 C 18.663 37.268 20.474 39.019 28.793 48.698 C 39.182 60.807 57.216 59.895 75.6 53.845 C 93.984 47.795 96.728 35.251 95.933 32.982 C 95.295 31.164 88.271 28.534 84.805 27.274 C 84.805 28.787 83.233 32.118 83.871 35.143 C 84.666 38.925 82.632 42.715 77.031 44.228 C 71.439 45.74 67.243 41.356 63.25 40.599 C 59.257 39.843 54.035 40.599 47.51 44.228 C 41.603 47.514 37.657 44.381 34.459 40.599 L 34.44 40.599 Z" fill="#AE92FF"/>
    <path d="M 85.525 12.877 C 80.728 6.827 71.227 2.829 63.232 2.073 C 45.652 0.56 36.668 7.259 31.88 11.797 C 27.323 16.11 23.192 22.394 24.791 20.881 C 26.39 19.369 47.981 13.661 58.37 13.661 C 70.802 13.661 83.658 18.108 90.322 20.125 C 90.054 19.117 89.361 17.721 85.525 12.877 Z" fill="#AE92FF"/>
    <path d="M 111.574 9.415 L 101.845 20.902 C 101.41 21.416 101.485 22.177 102.013 22.601 L 106.818 26.462 C 107.346 26.886 108.127 26.813 108.562 26.299 L 118.29 14.812 C 118.725 14.298 118.651 13.537 118.123 13.113 L 113.317 9.252 C 112.79 8.828 112.009 8.901 111.574 9.415 Z" fill="#AE92FF"/>
    <path d="M 97.468 17.168 L 96.315 18.529 C 96.097 18.786 96.135 19.167 96.399 19.379 L 110.673 30.849 C 110.937 31.061 111.327 31.024 111.545 30.767 L 112.698 29.406 C 112.915 29.149 112.878 28.769 112.614 28.557 L 98.34 17.087 C 98.076 16.875 97.685 16.911 97.468 17.168 Z" fill="#AE92FF"/>
    <path d="M 100.202 22.073 L 87.251 37.367 L 94.737 43.383 L 107.689 28.089 L 100.202 22.073 Z" stroke="#AE92FF" stroke-width="2.69" style="fill: rgba(0, 0, 0, 0);"/>
    <path d="M 105.202 40.987 C 74.229 40.555 24.04 40.933 11.571 41.014 C 10.167 41.014 9.067 42.221 9.224 43.58 L 14.28 88.256 C 14.409 89.427 15.426 90.309 16.627 90.309 L 99.277 90.309 C 100.47 90.309 101.468 89.445 101.625 88.301 L 107.494 43.589 C 107.67 42.23 106.607 41.014 105.202 40.996 L 105.202 40.987 Z M 58.997 73.806 C 54.708 73.806 51.223 70.42 51.223 66.234 C 51.223 62.047 54.699 58.661 58.997 58.661 C 63.294 58.661 66.77 62.047 66.77 66.234 C 66.77 70.42 63.294 73.806 58.997 73.806 Z" fill="#AE92FF"/>
  </g>
</svg>