<svg width="63" height="46" viewBox="0 0 63 46" fill="none" xmlns="http://www.w3.org/2000/svg">
<ellipse cx="37.37" cy="22.5963" rx="23.5021" ry="21.2879" stroke="#8975DB" stroke-width="2.63075"/>
<path d="M13.8679 20.0653C16.858 18.7751 25.0987 15.1391 37.7288 15.1391C50.359 15.1391 58.48 18.7751 60.5133 20.0653" stroke="#8975DB" stroke-width="2.63075"/>
<path d="M15.9888 13.4289C18.6999 12.1719 26.3135 8.7557 37.72 8.8474C49.1266 8.9391 56.6969 12.1353 58.5225 13.4287" stroke="#8975DB" stroke-width="1.86363"/>
<path d="M19.6789 17.5957C19.6789 21.338 18.1945 27.1684 24.1601 30.313C30.1256 33.4576 31.0396 27.1312 37.761 27.1312C44.0993 27.1312 44.7678 32.0509 50.7783 30.313C55.0779 29.0699 55.4008 20.8123 54.8616 17.2259" stroke="#8975DB" stroke-width="1.86363"/>
<path d="M11.8079 3.60676C12.6258 6.23911 14.364 11.073 16.987 11.1595C16.2447 12.5904 15.3858 15.1468 14.1373 17.9417C11.2741 19.113 5.26069 19.457 0.913907 18.4451C0.649818 17.5323 0.60614 13.7299 0.22491 11.909C3.7826 13.7633 11.7391 14.8292 12.3824 13.6129C12.3824 13.6129 6.67992 8.214 5.87639 5.1479C5.87639 5.1479 10.6519 4.87129 11.8079 3.60676Z" fill="#8975DB"/>
<ellipse cx="30.5528" cy="21.6962" rx="1.25584" ry="1.23153" fill="#8975DB" stroke="#8975DB" stroke-width="0.968559"/>
<ellipse cx="43.4699" cy="21.6962" rx="1.25584" ry="1.23153" fill="#8975DB" stroke="#8975DB" stroke-width="0.968559"/>
<path d="M20.9694 27.2057C19.7197 25.0322 19.5188 20.5054 19.6848 18.7309L13.747 20.4967C13.4151 23.2391 14.2263 30.3351 19.4043 36.5297C25.8769 44.273 39.2717 45.8169 49.3208 41.4356C60.4016 36.6044 61.445 22.3164 60.9471 20.8645C60.5488 19.703 57.485 18.5852 55.3275 17.7786C55.3275 18.7465 54.9943 21.5721 54.8601 23.5439C54.6434 26.7265 53.2817 29.427 49.7964 30.3949C46.3112 31.3628 42.4688 28.0013 39.9793 27.5173C37.4899 27.0334 34.7352 26.9192 30.7959 29.4511C25.9164 32.5872 22.7614 30.3221 20.9694 27.2057Z" fill="#8975DB"/>
<path d="M54.4745 8.00446C51.4871 4.13282 45.5659 1.57583 40.587 1.09188C29.6335 0.123969 24.0398 4.40952 21.0525 7.31321C18.214 10.0722 15.639 14.0891 16.6348 13.1212C17.6306 12.1533 31.0841 8.50317 37.5566 8.50317C45.301 8.50317 53.3128 11.3467 57.4619 12.6373C57.2959 11.992 56.8644 11.1018 54.4745 8.00446Z" fill="#8975DB"/>
</svg>
