<svg width="50" height="50" viewBox="0 0 500 500" xmlns="http://www.w3.org/2000/svg">
  <g transform="matrix(1, 0, 0, 1, -22.235485076904297, -13.383227348327623)">
    <g>
      <path class="st0" d="M 450.243 342.117 L 450.243 88.086 C 449.906 66.776 432.96 49.662 411.652 49.662 L 146.545 49.662 C 89.33 50.501 43.356 97.314 43.356 154.698 C 43.356 173.993 48.557 190.604 56.443 205.202 C 63.155 217.283 73.726 228.692 84.128 237.249 C 87.148 239.599 85.639 238.592 94.699 244.129 C 107.115 251.68 121.377 255.539 121.377 255.539 L 121.21 407.555 C 121.545 414.77 122.216 421.649 124.23 428.192 C 130.102 449.67 145.035 466.113 165.17 473.999 C 173.559 477.355 183.124 479.537 193.358 479.704 L 405.108 480.375 C 447.223 480.375 481.452 446.146 481.452 403.863 C 481.619 378.696 469.034 356.212 450.243 342.117 Z" style="fill: rgb(255, 238, 218);"/>
      <path class="st1" d="M 455.444 405.71 C 454.605 432.724 432.289 454.535 404.94 454.535 L 259.299 454.032 C 270.876 440.61 277.924 423.159 277.924 404.031 C 277.924 374.166 260.139 353.527 260.139 353.527 L 405.108 353.527 C 432.96 353.527 455.612 376.178 455.612 404.031 L 455.444 405.71 Z" style="fill: rgb(235, 194, 142);"/>
      <path class="st2" d="M 98.055 215.773 C 81.275 199.833 69.53 179.362 69.53 154.866 L 69.53 152.348 C 70.873 110.738 105.102 77.179 146.713 76.005 L 411.819 76.005 C 418.698 76.341 424.235 81.206 424.235 88.254 L 424.235 312.587 C 430.275 313.593 433.296 314.432 439.169 316.614 C 443.867 318.291 450.243 321.983 450.243 321.983 L 450.243 88.254 C 449.906 66.944 432.96 49.83 411.652 49.83 L 146.545 49.83 C 89.33 50.669 43.356 97.482 43.356 154.866 C 43.356 188.256 58.625 216.78 83.457 236.746 C 85.134 238.088 86.813 239.934 91.175 239.934 C 98.893 239.934 104.43 233.726 104.095 227.015 C 104.095 221.31 101.578 219.297 98.055 215.773 Z" style="fill: rgb(16, 16, 16);"/>
      <path class="st2" d="M 404.94 327.353 L 197.049 327.353 C 183.124 327.519 171.882 338.761 171.882 352.688 L 171.882 382.555 C 172.217 396.313 183.962 408.058 198.057 408.058 L 213.492 408.058 L 213.492 382.555 L 197.888 382.555 L 197.888 353.359 C 197.888 353.359 201.747 353.359 206.278 353.359 C 232.62 353.359 251.916 377.688 251.916 403.863 C 251.916 427.018 230.775 456.549 195.54 454.2 C 164.331 452.187 147.385 424.333 147.385 403.863 L 147.385 150.503 C 147.385 139.093 137.988 129.698 126.578 129.698 L 105.773 129.698 L 105.773 155.704 L 121.21 155.704 L 121.21 404.031 C 120.371 454.535 157.116 479.872 195.54 479.872 L 405.108 480.543 C 447.223 480.543 481.452 446.314 481.452 404.031 C 481.619 361.748 447.223 327.353 404.94 327.353 Z M 455.444 405.71 C 454.605 432.724 432.289 454.535 404.94 454.535 L 259.299 454.032 C 270.876 440.61 277.924 423.159 277.924 404.031 C 277.924 374.166 260.139 353.527 260.139 353.527 L 405.108 353.527 C 432.96 353.527 455.612 376.178 455.612 404.031 L 455.444 405.71 Z" style="fill: rgb(16, 16, 16);"/>
      <path class="st2" d="M 348.898 160.402 L 192.184 160.402 L 192.184 134.396 L 348.898 134.396 C 355.945 134.396 361.818 140.1 361.818 147.315 C 361.986 154.53 356.281 160.402 348.898 160.402 Z" style="fill: rgb(16, 16, 16);"/>
      <path class="st2" d="M 348.898 282.385 L 192.184 282.385 L 192.184 256.545 L 348.898 256.545 C 355.945 256.545 361.818 262.25 361.818 269.466 C 361.986 276.512 356.281 282.385 348.898 282.385 Z" style="fill: rgb(16, 16, 16);"/>
      <path class="st2" d="M 376.584 221.31 L 192.184 221.31 L 192.184 195.302 L 376.416 195.302 C 383.462 195.302 389.335 201.007 389.335 208.223 C 389.671 215.438 383.798 221.31 376.584 221.31 Z" style="fill: rgb(16, 16, 16);"/>
    </g>
  </g>
</svg>