<svg width="472" height="112" viewBox="0 0 472 112" fill="none" xmlns="http://www.w3.org/2000/svg">
<path d="M165.726 82.2715H175.817L180.171 71.3222H199.563L203.982 82.2715H214.14L195.341 36.0997H184.392L165.726 82.2715ZM183.733 62.4836L189.867 47.115L196.067 62.4836H183.733ZM218.352 82.2715H241.042C249.155 82.2715 254.63 76.6649 254.63 69.1455C254.63 64.1985 252.189 60.2409 248.034 57.9324C251.002 56.0195 252.783 52.4577 252.783 48.1703C252.783 41.3765 247.836 36.0997 239.855 36.0997H218.352V82.2715ZM227.586 54.3705V44.7404H238.47C241.966 44.7404 243.944 46.6532 243.944 49.3576C243.944 52.4577 242.032 54.3705 238.536 54.3705H227.586ZM227.586 73.6308V62.6814H239.063C242.823 62.6814 245 64.99 245 68.1561C245 71.3222 242.823 73.6308 239.063 73.6308H227.586ZM260.221 82.2715H269.455V36.0997H260.221V82.2715ZM291.848 82.2715H301.083L301.149 49.2916L322.651 82.2715H333.205V36.0997H323.971V67.3646L303.655 36.0997H291.848V82.2715ZM339.958 82.2715H349.192V50.0172H339.958V82.2715ZM344.575 34.6486C341.475 34.6486 339.034 37.155 339.034 40.2551C339.034 43.2233 341.475 45.7958 344.575 45.7958C347.675 45.7958 350.181 43.2233 350.181 40.2551C350.181 37.155 347.675 34.6486 344.575 34.6486ZM355.481 82.2715H364.716V64.6602C364.716 59.9771 366.958 57.2728 370.586 57.2728C373.95 57.2728 375.665 59.3175 375.665 63.473V82.2715H384.899V61.824C384.899 53.9088 380.744 49.0278 373.686 49.0278C370.058 49.0278 367.024 50.281 364.716 52.7215V50.0172H355.481V82.2715ZM379.028 87.8781C379.028 94.1442 383.316 98.1018 389.846 98.1018C397.233 98.1018 401.916 93.2208 401.916 86.361V50.0172H392.682V86.8887C392.682 88.7355 391.627 89.8569 389.846 89.8569C388.197 89.8569 387.141 88.8015 387.207 86.4929L379.028 87.8781ZM397.431 34.6486C394.331 34.6486 391.891 37.155 391.891 40.2551C391.891 43.2233 394.331 45.7958 397.431 45.7958C400.531 45.7958 403.038 43.2233 403.038 40.2551C403.038 37.155 400.531 34.6486 397.431 34.6486ZM419.713 62.6814C411.468 64.0666 407.313 67.4965 407.313 73.6308C407.313 78.5118 411.204 83.2609 418.196 83.2609C421.956 83.2609 424.66 81.414 425.979 79.1054V82.2715H434.554V60.7027C434.554 53.579 429.541 49.0278 420.769 49.0278C413.249 49.0278 407.049 53.4471 407.445 61.2963L415.69 62.1538C415.492 58.6579 417.471 56.4812 420.966 56.4812C424.067 56.4812 425.913 58.1302 425.913 60.4388V61.5601L419.713 62.6814ZM419.977 75.6096C417.603 75.6096 416.019 74.3563 416.019 72.5094C416.019 70.3328 417.8 69.2774 420.9 68.6838L425.913 67.7603V69.2115C425.913 73.1031 423.473 75.6096 419.977 75.6096Z" fill="#551D98"/>
<ellipse cx="64.9059" cy="39.57" rx="40.8153" ry="36.9699" stroke="#551D98" stroke-width="5.11426"/>
<path d="M24.0906 35.1747C29.2834 32.9341 43.5947 26.6197 65.529 26.6197C87.4633 26.6197 101.567 32.9341 105.098 35.1747" stroke="#551D98" stroke-width="5.11426"/>
<path d="M27.7735 23.6494C32.4818 21.4665 45.7041 15.5336 65.5134 15.6929C85.3227 15.8522 98.4699 21.4029 101.64 23.6492" stroke="#551D98" stroke-width="3.62295"/>
<path d="M36.7785 30.8309C36.7785 36.7784 34.4196 46.0441 43.9001 51.0415C53.3806 56.0389 54.8331 45.985 65.5149 45.985C75.5879 45.985 76.6501 53.8034 86.2022 51.0415C93.0351 49.0659 93.5482 35.9428 92.6913 30.2432" stroke="#551D98" stroke-width="3.62295"/>
<path d="M20.513 6.59161C21.9333 11.1631 24.9519 19.5579 29.5072 19.7083C28.2181 22.1932 26.7265 26.6328 24.5582 31.4866C19.5858 33.5208 9.14256 34.1182 1.59366 32.3609C1.13503 30.7755 1.05917 24.172 0.397106 21.0098C6.57561 24.2301 20.3934 26.0813 21.5106 23.969C21.5106 23.969 11.6073 14.5928 10.2118 9.26804C10.2118 9.26804 18.5052 8.78766 20.513 6.59161Z" fill="#551D98"/>
<ellipse cx="53.0664" cy="38.0068" rx="2.18097" ry="2.13875" fill="#551D98" stroke="#551D98" stroke-width="1.88291"/>
<ellipse cx="75.4991" cy="38.0068" rx="2.18097" ry="2.13875" fill="#551D98" stroke="#551D98" stroke-width="1.88291"/>
<path d="M39.2079 45.0379C36.441 41.676 36.1475 34.6195 36.4358 31.5378L22.711 36.5806C22.1346 41.3433 24.0944 51.8771 33.087 62.6351C44.3277 76.0826 64.2152 78.604 84.1026 71.8803C103.99 65.1565 106.584 39.102 105.719 36.5806C105.028 34.5635 97.4247 31.6444 93.6778 30.2436C93.6778 31.9245 91.9773 35.6238 92.6691 38.9857C93.5337 43.188 91.3246 47.3917 85.2719 49.0727C79.2192 50.7536 74.6841 45.8783 70.3607 45.0379C66.0374 44.1974 60.3907 45.0379 53.3298 49.0727C46.9373 52.7255 42.6666 49.2402 39.2079 45.0379Z" fill="#551D98"/>
<path d="M94.4786 14.247C89.2905 7.52326 79.0074 3.08264 70.3607 2.24217C51.3381 0.561232 41.6238 8.0038 36.4358 13.0465C31.5063 17.838 27.0344 24.8141 28.7638 23.1331C30.4931 21.4522 53.8573 15.1131 65.0979 15.1131C78.5473 15.1131 92.4611 20.0514 99.6668 22.2927C99.3785 21.172 98.6291 19.626 94.4786 14.247Z" fill="#551D98"/>
<rect x="123.509" y="9.36021" width="9.42353" height="19.2212" rx="1.34493" transform="rotate(39.5223 123.509 9.36021)" fill="#551D98"/>
<rect x="107.828" y="18.4947" width="21.36" height="3.29507" rx="0.672467" transform="rotate(39.5223 107.828 18.4947)" fill="#551D98"/>
<rect x="110.354" y="24.4571" width="10.5031" height="22.0232" transform="rotate(39.5223 110.354 24.4571)" stroke="#551D98" stroke-width="2.68987"/>
<path d="M11.3126 48.1075L16.7793 97.7229C16.9221 99.019 18.0172 100 19.321 100H108.751C110.038 100 111.124 99.0437 111.288 97.7672L117.638 48.104C117.831 46.5923 116.68 45.2482 115.156 45.2263C81.6432 44.7442 27.3425 45.169 13.8524 45.2556C12.3293 45.2654 11.1458 46.5935 11.3126 48.1075Z" fill="#551D98"/>
<circle cx="65.1632" cy="73.2731" r="8.40584" fill="#F6EAFF"/>
</svg>
