<svg width="202" height="145" viewBox="0 0 202 145" fill="none" xmlns="http://www.w3.org/2000/svg">
<ellipse cx="97.1174" cy="58.8692" rx="60.6948" ry="54.9765" stroke="#551D98" stroke-width="7.60523"/>
<path d="M36.4225 52.3332C44.1445 49.0013 65.4263 39.6113 98.044 39.6113C130.662 39.6113 151.635 49.0013 156.886 52.3332" stroke="#551D98" stroke-width="7.60523"/>
<path d="M41.8994 35.194C48.9009 31.9478 68.5632 23.1253 98.0209 23.3621C127.479 23.5989 147.029 31.8533 151.744 35.1936" stroke="#551D98" stroke-width="5.38755"/>
<path d="M55.2903 45.8739C55.2903 54.7181 51.7824 68.4968 65.8806 75.9283C79.9786 83.3597 82.1386 68.4089 98.0231 68.4089C113.002 68.4089 114.582 80.0354 128.786 75.9283C138.947 72.9904 139.71 53.4757 138.436 45" stroke="#551D98" stroke-width="5.38755"/>
<path d="M31.1025 9.82849C33.2146 16.6266 37.7035 29.1102 44.4776 29.3338C42.5605 33.029 40.3424 39.6309 37.118 46.8489C29.7238 49.8739 14.194 50.7623 2.96833 48.149C2.28631 45.7915 2.17351 35.9717 1.18898 31.2692C10.3768 36.0581 30.9248 38.8109 32.5861 35.6697C32.5861 35.6697 17.8592 21.7268 15.7841 13.8085C15.7841 13.8085 28.1169 13.0942 31.1025 9.82849Z" fill="#551D98"/>
<ellipse cx="79.5113" cy="56.5443" rx="3.24324" ry="3.18046" fill="#551D98" stroke="#551D98" stroke-width="2.8"/>
<ellipse cx="112.87" cy="56.5443" rx="3.24324" ry="3.18046" fill="#551D98" stroke="#551D98" stroke-width="2.8"/>
<path d="M58.903 67C54.7883 62.0007 54.3519 51.5073 54.7805 46.9245L34.371 54.4235C33.5138 61.5059 36.4282 77.1704 49.8008 93.1682C66.5164 113.165 96.0902 116.915 125.664 106.916C155.238 96.9177 159.095 58.173 157.81 54.4235C156.781 51.4239 145.475 47.083 139.903 45C139.903 47.4997 137.374 53.0007 138.403 58C139.689 64.2491 136.404 70.5003 127.403 73C118.402 75.4997 111.658 68.2498 105.229 67C98.8 65.7502 90.403 67 79.903 73C70.3969 78.432 64.0462 73.2491 58.903 67Z" fill="#551D98"/>
<path d="M141.094 21.2121C133.379 11.2134 118.087 4.60996 105.229 3.36013C76.9412 0.860474 62.4954 11.928 54.7805 19.4269C47.4502 26.552 40.8002 36.9259 43.3718 34.4263C45.9434 31.9266 80.6874 22.5 97.403 22.5C117.403 22.5 138.094 29.8436 148.809 33.1764C148.38 31.51 147.266 29.211 141.094 21.2121Z" fill="#551D98"/>
<rect x="184.263" y="13.9452" width="14.0134" height="28.5832" rx="2" transform="rotate(39.5223 184.263 13.9452)" fill="#551D98"/>
<rect x="160.946" y="27.5286" width="31.7637" height="4.89997" rx="1" transform="rotate(39.5223 160.946 27.5286)" fill="#551D98"/>
<rect x="164.701" y="36.3955" width="15.6187" height="32.7498" transform="rotate(39.5223 164.701 36.3955)" stroke="#551D98" stroke-width="4"/>
<path d="M17.9824 70.0682L26.0818 141.625C26.2994 143.547 27.9257 145 29.8603 145H162.762C164.671 145 166.284 143.585 166.533 141.693L175.941 70.0664C176.237 67.8136 174.522 65.8059 172.25 65.7741C122.464 65.0773 41.8233 65.6912 21.7564 65.8167C19.487 65.8308 17.7271 67.8131 17.9824 70.0682Z" fill="#551D98"/>
<circle cx="97.5" cy="107.5" r="12.5" fill="#F6EAFF"/>
</svg>
